<svg width="191" height="60" viewBox="0 0 191 60" fill="none" xmlns="http://www.w3.org/2000/svg">
<path d="M52.1807 43.6583V15.578H57.7648V19.0082H58.0174C58.2656 18.4587 58.6246 17.9003 59.0944 17.333C59.573 16.7569 60.1935 16.2782 60.9557 15.8971C61.7269 15.5071 62.6842 15.3121 63.8276 15.3121C65.3167 15.3121 66.6906 15.7021 67.9492 16.4821C69.2079 17.2532 70.2139 18.4188 70.9673 19.9788C71.7207 21.53 72.0974 23.4756 72.0974 25.8156C72.0974 28.0936 71.7296 30.017 70.9939 31.5859C70.2671 33.1459 69.2743 34.3292 68.0157 35.1358C66.7659 35.9335 65.3654 36.3324 63.8143 36.3324C62.7152 36.3324 61.7801 36.1507 61.0089 35.7873C60.2466 35.4239 59.6218 34.9674 59.1342 34.4178C58.6467 33.8594 58.2745 33.2966 58.0174 32.7293H57.8446V43.6583H52.1807ZM57.7249 25.789C57.7249 27.0033 57.8933 28.0625 58.2301 28.9666C58.567 29.8707 59.0545 30.5754 59.6927 31.0806C60.3309 31.577 61.1064 31.8252 62.0194 31.8252C62.9412 31.8252 63.7212 31.5726 64.3594 31.0673C64.9976 30.5532 65.4807 29.8441 65.8086 28.94C66.1455 28.0271 66.3139 26.9767 66.3139 25.789C66.3139 24.6101 66.1499 23.5731 65.8219 22.6778C65.494 21.7826 65.0109 21.0824 64.3727 20.5771C63.7345 20.0719 62.9501 19.8193 62.0194 19.8193C61.0976 19.8193 60.3176 20.063 59.6794 20.5505C59.05 21.038 58.567 21.7294 58.2301 22.6246C57.8933 23.5199 57.7249 24.5747 57.7249 25.789ZM75.8734 36V15.578H81.5373V36H75.8734ZM78.7186 12.9455C77.8766 12.9455 77.1542 12.6663 76.5515 12.1078C75.9576 11.5406 75.6607 10.8625 75.6607 10.0736C75.6607 9.2936 75.9576 8.62439 76.5515 8.06598C77.1542 7.4987 77.8766 7.21506 78.7186 7.21506C79.5607 7.21506 80.2787 7.4987 80.8725 8.06598C81.4753 8.62439 81.7766 9.2936 81.7766 10.0736C81.7766 10.8625 81.4753 11.5406 80.8725 12.1078C80.2787 12.6663 79.5607 12.9455 78.7186 12.9455ZM91.7383 24.1935V36H86.0744V15.578H91.4724V19.1811H91.7118C92.1638 17.9933 92.9216 17.0538 93.9853 16.3624C95.0489 15.6622 96.3386 15.3121 97.8543 15.3121C99.2725 15.3121 100.509 15.6223 101.564 16.2428C102.619 16.8632 103.438 17.7496 104.023 18.9019C104.608 20.0453 104.901 21.4103 104.901 22.9969V36H99.2371V24.0074C99.2459 22.7576 98.9268 21.7826 98.2798 21.0824C97.6327 20.3733 96.7419 20.0187 95.6074 20.0187C94.8451 20.0187 94.1714 20.1827 93.5864 20.5106C93.0103 20.8386 92.5582 21.3172 92.2303 21.9466C91.9112 22.567 91.7472 23.316 91.7383 24.1935ZM109.365 43.6583V15.578H114.949V19.0082H115.202C115.45 18.4587 115.809 17.9003 116.279 17.333C116.757 16.7569 117.378 16.2782 118.14 15.8971C118.911 15.5071 119.868 15.3121 121.012 15.3121C122.501 15.3121 123.875 15.7021 125.134 16.4821C126.392 17.2532 127.398 18.4188 128.152 19.9788C128.905 21.53 129.282 23.4756 129.282 25.8156C129.282 28.0936 128.914 30.017 128.178 31.5859C127.451 33.1459 126.459 34.3292 125.2 35.1358C123.95 35.9335 122.55 36.3324 120.999 36.3324C119.899 36.3324 118.964 36.1507 118.193 35.7873C117.431 35.4239 116.806 34.9674 116.319 34.4178C115.831 33.8594 115.459 33.2966 115.202 32.7293H115.029V43.6583H109.365ZM114.909 25.789C114.909 27.0033 115.078 28.0625 115.414 28.9666C115.751 29.8707 116.239 30.5754 116.877 31.0806C117.515 31.577 118.291 31.8252 119.204 31.8252C120.126 31.8252 120.906 31.5726 121.544 31.0673C122.182 30.5532 122.665 29.8441 122.993 28.94C123.33 28.0271 123.498 26.9767 123.498 25.789C123.498 24.6101 123.334 23.5731 123.006 22.6778C122.678 21.7826 122.195 21.0824 121.557 20.5771C120.919 20.0719 120.134 19.8193 119.204 19.8193C118.282 19.8193 117.502 20.063 116.864 20.5505C116.234 21.038 115.751 21.7294 115.414 22.6246C115.078 23.5199 114.909 24.5747 114.909 25.789ZM142.365 36.3989C140.264 36.3989 138.456 35.9734 136.94 35.1225C135.433 34.2627 134.272 33.0484 133.457 31.4795C132.641 29.9018 132.233 28.0359 132.233 25.8821C132.233 23.7814 132.641 21.9377 133.457 20.3511C134.272 18.7645 135.42 17.528 136.9 16.6416C138.389 15.7553 140.135 15.3121 142.139 15.3121C143.486 15.3121 144.74 15.5292 145.901 15.9636C147.071 16.389 148.091 17.0316 148.959 17.8914C149.837 18.7512 150.519 19.8326 151.007 21.1355C151.494 22.4296 151.738 23.9453 151.738 25.6826V27.2382H134.494V23.7282H146.406C146.406 22.9127 146.229 22.1903 145.875 21.561C145.52 20.9317 145.028 20.4397 144.399 20.0852C143.778 19.7218 143.056 19.5401 142.232 19.5401C141.372 19.5401 140.61 19.7395 139.945 20.1384C139.289 20.5284 138.775 21.0558 138.403 21.7205C138.03 22.3765 137.84 23.1077 137.831 23.9143V27.2515C137.831 28.262 138.017 29.135 138.389 29.8707C138.77 30.6064 139.307 31.1737 139.998 31.5726C140.689 31.9714 141.509 32.1709 142.458 32.1709C143.087 32.1709 143.663 32.0822 144.186 31.905C144.709 31.7277 145.157 31.4618 145.529 31.1072C145.901 30.7527 146.185 30.3184 146.38 29.8043L151.618 30.1499C151.352 31.4086 150.807 32.5077 149.983 33.4472C149.168 34.3779 148.113 35.1048 146.819 35.6277C145.533 36.1418 144.049 36.3989 142.365 36.3989ZM155.434 36V15.578H160.925V19.1412H161.138C161.51 17.8737 162.135 16.9164 163.013 16.2694C163.89 15.6134 164.901 15.2855 166.044 15.2855C166.328 15.2855 166.633 15.3032 166.961 15.3387C167.289 15.3741 167.577 15.4229 167.826 15.4849V20.5106C167.56 20.4309 167.192 20.36 166.722 20.2979C166.252 20.2359 165.822 20.2048 165.432 20.2048C164.599 20.2048 163.855 20.3866 163.199 20.75C162.552 21.1045 162.038 21.6009 161.656 22.2391C161.284 22.8773 161.098 23.6129 161.098 24.4461V36H155.434ZM179.03 36.3989C176.965 36.3989 175.179 35.9601 173.672 35.0826C172.174 34.1962 171.018 32.9642 170.202 31.3864C169.387 29.7998 168.979 27.9606 168.979 25.8688C168.979 23.7592 169.387 21.9155 170.202 20.3378C171.018 18.7512 172.174 17.5191 173.672 16.6416C175.179 15.7553 176.965 15.3121 179.03 15.3121C181.096 15.3121 182.877 15.7553 184.375 16.6416C185.882 17.5191 187.043 18.7512 187.859 20.3378C188.674 21.9155 189.082 23.7592 189.082 25.8688C189.082 27.9606 188.674 29.7998 187.859 31.3864C187.043 32.9642 185.882 34.1962 184.375 35.0826C182.877 35.9601 181.096 36.3989 179.03 36.3989ZM179.057 32.0113C179.997 32.0113 180.781 31.7454 181.41 31.2136C182.04 30.6729 182.514 29.9372 182.833 29.0065C183.161 28.0758 183.325 27.0166 183.325 25.8289C183.325 24.6411 183.161 23.5819 182.833 22.6512C182.514 21.7205 182.04 20.9849 181.41 20.4442C180.781 19.9035 179.997 19.6331 179.057 19.6331C178.109 19.6331 177.311 19.9035 176.664 20.4442C176.026 20.9849 175.543 21.7205 175.215 22.6512C174.896 23.5819 174.736 24.6411 174.736 25.8289C174.736 27.0166 174.896 28.0758 175.215 29.0065C175.543 29.9372 176.026 30.6729 176.664 31.2136C177.311 31.7454 178.109 32.0113 179.057 32.0113Z" fill="white"/>
<path d="M20.2802 0C10.9201 0 0 37.8947 0 37.8947H37.4404C37.4404 37.8947 29.6403 0 20.2802 0Z" fill="#D9D9D9"/>
<path d="M9.36011 60V41.0526H19.2708H28.0803V60L19.2708 48.9473L9.36011 60Z" fill="url(#paint0_diamond_10_14)"/>
<defs>
<radialGradient id="paint0_diamond_10_14" cx="0" cy="0" r="1" gradientUnits="userSpaceOnUse" gradientTransform="translate(18.7202 50.5263) rotate(90) scale(9.47368 9.36009)">
<stop stop-color="#FF9901"/>
<stop offset="1" stop-color="#CF2C2C"/>
</radialGradient>
</defs>
</svg>
